 
http://www.shotpix.com/images/31340706970470037933.jpg


 
http://www.imdb.com/title/tt1790885/


Plot: A chronicle of the decade-long hunt for al-Qaeda terrorist leader Osama bin Laden after the September 2001 attacks, and his death at the hands of the Navy S.E.A.L. Team 6 in May, 2011.
 


Director: 
Kathryn Bigelow

 Writer: 
Mark Boal (screenplay)
 
Stars:
 Jessica Chastain, Joel Edgerton and Chris Pratt

Genres:
 Action | Drama | History | Thriller 

Format                                   : AVI
Format/Info                              : Audio Video Interleave
File size                                : 1.45 GiB
Duration                                 : 2h 36mn
Overall bit rate                         : 1 326 Kbps
Writing application                      : VirtualDubMod 1.5.10.3 | www.virtualdub-fr.org || (build 2550/release)
Writing library                          : VirtualDubMod build 2550/release

Video
ID                                       : 0
Format                                   : MPEG-4 Visual
Format profile                           : Advanced Simple@L5
Format settings, BVOP                    : 2
Format settings, QPel                    : No
Format settings, GMC                     : No warppoints
Format settings, Matrix                  : Default (H.263)
Muxing mode                              : Packed bitstream
Codec ID                                 : XVID
Codec ID/Hint                            : XviD
Duration                                 : 2h 36mn
Bit rate                                 : 1 122 Kbps
Width                                    : 720 pixels
Height                                   : 384 pixels
Display aspect ratio                     : 1.85:1
Frame rate                               : 29.970 fps
Color space                              : YUV
Chroma subsampling                       : 4:2:0
Bit depth                                : 8 bits
Scan type                                : Progressive
Compression mode                         : Lossy
Bits/(Pixel*Frame)                       : 0.135
Stream size                              : 1.23 GiB (85%)
Writing library                          : XviD 64

Audio
ID                                       : 1
Format                                   : AC-3
Format/Info                              : Audio Coding 3
Mode extension                           : CM (complete main)
Format settings, Endianness              : Big
Codec ID                                 : 2000
Duration                                 : 2h 36mn
Bit rate mode                            : Constant
Bit rate                                 : 192 Kbps
Channel(s)                               : 2 channels
Channel positions                        : Front: L R
Sampling rate                            : 48.0 KHz
Bit depth                                : 16 bits
Compression mode                         : Lossy
Stream size                              : 216 MiB (14%)
Alignment                                : Split accross interleaves
Interleave, duration                     : 33 ms (1.00 video frame)
Interleave, preload duration             : 500 ms


 
http://www.shotpix.com/images/63275112888398918839.png 
http://www.shotpix.com/images/25119560655311095126.png 
http://www.shotpix.com/images/83924377416744836763.png 
http://www.shotpix.com/images/34585385308097474507.png